<svg xmlns="http://www.w3.org/2000/svg" width="15" height="13" viewBox="0 0 15 13">
  <defs>
    <style>
      .cls-1 {
        fill-rule: evenodd;
      }
    </style>
  </defs>
  <path id="Forma_1" data-name="Forma 1" class="cls-1" d="M578.556,708.875q-1.356-3.274-7.324-3.274h-1.875v-2.08a0.493,0.493,0,0,0-.159-0.366,0.537,0.537,0,0,0-.753,0l-4.286,4.16a0.5,0.5,0,0,0,0,.731l4.286,4.159a0.535,0.535,0,0,0,.753,0,0.493,0.493,0,0,0,.159-0.365v-2.08h1.875q0.821,0,1.469.049a10.813,10.813,0,0,1,1.289.174,4.85,4.85,0,0,1,1.113.346,3.941,3.941,0,0,1,.884.564,2.847,2.847,0,0,1,.669.821,4.333,4.333,0,0,1,.406,1.125,6.685,6.685,0,0,1,.147,1.47q0,0.447-.042,1a1.611,1.611,0,0,1-.021.19,1.613,1.613,0,0,0-.021.216,0.3,0.3,0,0,0,.071.2,0.249,0.249,0,0,0,.2.081,0.288,0.288,0,0,0,.234-0.138,0.964,0.964,0,0,0,.109-0.179c0.034-.07.071-0.152,0.113-0.244s0.071-.156.088-0.195A9.521,9.521,0,0,0,579,711.58,7.189,7.189,0,0,0,578.556,708.875Z" transform="translate(-564 -703)"/>
</svg>
