<svg xmlns="http://www.w3.org/2000/svg" width="15" height="12" viewBox="0 0 15 12">
  <defs>
    <style>
      .cls-1 {
        fill: #bc1d29;
        fill-rule: evenodd;
      }
    </style>
  </defs>
  <path id="Forma_1" data-name="Forma 1" class="cls-1" d="M1555.5,98.421l-5.35,4.435a0.041,0.041,0,0,1-.01.028V107.4a0.573,0.573,0,0,0,.18.421,0.543,0.543,0,0,0,.41.177h3.58v-3.592h2.38V108h3.58a0.543,0.543,0,0,0,.41-0.177,0.573,0.573,0,0,0,.18-0.421v-4.491a0.089,0.089,0,0,0-.01-0.056Zm7.4,3.425-2.04-1.7V96.325a0.315,0.315,0,0,0-.08-0.215,0.305,0.305,0,0,0-.22-0.084h-1.78a0.305,0.305,0,0,0-.22.084,0.315,0.315,0,0,0-.08.215V98.15l-2.27-1.909a1.157,1.157,0,0,0-1.42,0l-6.69,5.6a0.318,0.318,0,0,0-.04.421l0.58,0.692a0.3,0.3,0,0,0,.42.037l6.44-5.4,6.44,5.4a0.3,0.3,0,0,0,.2.066h0.02a0.334,0.334,0,0,0,.2-0.1l0.58-.692A0.318,0.318,0,0,0,1562.9,101.846Z" transform="translate(-1548 -96)"/>
</svg>
