<svg xmlns="http://www.w3.org/2000/svg" width="15.22" height="15.344" viewBox="0 0 15.22 15.344">
  <defs>
    <style>
      .cls-1 {
        fill: #bc1d29;
        fill-rule: evenodd;
      }
    </style>
  </defs>
  <path id="Forma_1" data-name="Forma 1" class="cls-1" d="M1286.79,20.007a0.719,0.719,0,0,1,.64.228l2.13,2.161a1.271,1.271,0,0,1,.28.382,1.692,1.692,0,0,1,.14.463,0.656,0.656,0,0,1,.01.1,1.279,1.279,0,0,1,.01.211,7.559,7.559,0,0,1-.62,2.689,14.638,14.638,0,0,1-1.24,2.267,16.715,16.715,0,0,1-2.25,2.7,18.928,18.928,0,0,1-2.13,1.885,15.72,15.72,0,0,1-1.88,1.2,10.213,10.213,0,0,1-1.57.683,8.268,8.268,0,0,1-1.21.309,3.966,3.966,0,0,1-.8.065c-0.19-.011-0.3-0.016-0.32-0.016a1.618,1.618,0,0,1-.46-0.146,1.207,1.207,0,0,1-.38-0.277l-2.15-2.161a0.715,0.715,0,0,1-.22-0.52,0.611,0.611,0,0,1,.12-0.373,1.093,1.093,0,0,1,.3-0.277l3.27-1.739a0.792,0.792,0,0,1,.57-0.081,1,1,0,0,1,.51.276l0.8,0.8a0.224,0.224,0,0,0,.1.057,0.418,0.418,0,0,0,.12.024,2.868,2.868,0,0,0,.78-0.293,7.553,7.553,0,0,0,.94-0.6,10.264,10.264,0,0,0,1.28-1.154,10.944,10.944,0,0,0,1.16-1.3,7.962,7.962,0,0,0,.6-0.951,2.172,2.172,0,0,0,.23-0.585l0.05-.2a0.324,0.324,0,0,0-.03-0.105,0.219,0.219,0,0,0-.06-0.105l-0.93-.927a1.011,1.011,0,0,1-.26-0.682,0.8,0.8,0,0,1,.1-0.439V23.55l1.84-3.137A0.8,0.8,0,0,1,1286.79,20.007Z" transform="translate(-1274.78 -20)"/>
</svg>
