<svg xmlns="http://www.w3.org/2000/svg" width="33" height="27" viewBox="0 0 33 27">
  <defs>
    <style>
      .cls-1 {
        fill-rule: evenodd;
        opacity: 0.77;
      }
    </style>
  </defs>
  <path id="Forma_1" data-name="Forma 1" class="cls-1" d="M976.309,4675.12c-1.753,6.3-6.076,10.88-10.279,10.88a5.593,5.593,0,0,1-1-.09,0.7,0.7,0,0,1-.45-0.31,0.653,0.653,0,0,1-.078-0.53l0.865-3.11a0.658,0.658,0,0,1,.671-0.49H966.1c1.558,0,4.407-2.35,5.859-7.57,0.057-.21.112-0.42,0.164-0.64A7.509,7.509,0,1,1,968.8,4659a7.678,7.678,0,0,1,2.019.28c2.62,0.74,4.589,2.92,5.546,6.16A18.046,18.046,0,0,1,976.309,4675.12Zm-27.6,10.87a5.594,5.594,0,0,1-1-.08,0.666,0.666,0,0,1-.449-0.31,0.653,0.653,0,0,1-.078-0.53l0.865-3.11a0.653,0.653,0,0,1,.671-0.49h0.068c1.559,0,4.407-2.35,5.86-7.57,0.057-.21.112-0.42,0.164-0.64a7.509,7.509,0,1,1-3.325-14.26,7.684,7.684,0,0,1,2.019.28c2.619,0.74,4.589,2.92,5.546,6.16a18.046,18.046,0,0,1-.058,9.68C957.232,4681.42,952.909,4685.99,948.706,4685.99Z" transform="translate(-944 -4659)"/>
</svg>
